<svg width="390.4" height="74.501" viewBox="0 0 390.4 74.501" xmlns="http://www.w3.org/2000/svg"><g id="svgGroup" stroke-linecap="round" fill-rule="evenodd" font-size="9pt" stroke="#000" stroke-width="0.25mm" fill="black" style="stroke:#000;stroke-width:0.25mm;fill:black"><path d="M 341.9 64.6 L 343.3 63.3 A 20.796 20.796 0 0 0 347.406 66.95 Q 349.838 68.62 353 69.95 Q 359.3 72.6 366.4 72.6 Q 373.228 72.6 377.957 70.893 A 17.488 17.488 0 0 0 382.85 68.25 A 14.755 14.755 0 0 0 386.692 63.87 Q 388.397 60.833 388.4 57.015 A 17.452 17.452 0 0 0 388.4 57 A 16.302 16.302 0 0 0 388.025 53.403 Q 387.358 50.45 385.5 48.4 Q 382.6 45.2 378.35 43.6 Q 374.288 42.071 367.532 40.45 A 183.699 183.699 0 0 0 366.9 40.3 A 167.104 167.104 0 0 1 362.4 39.127 Q 358.1 37.938 355.118 36.81 A 47.711 47.711 0 0 1 354.7 36.65 Q 350.2 34.9 347.05 31.25 A 12.455 12.455 0 0 1 344.42 26.052 Q 343.949 24.173 343.905 21.961 A 23.091 23.091 0 0 1 343.9 21.5 Q 343.9 16.7 346.4 12.7 A 15.142 15.142 0 0 1 350.356 8.514 A 21.454 21.454 0 0 1 354.2 6.3 A 25.024 25.024 0 0 1 359.617 4.597 Q 362.212 4.077 365.212 3.945 A 47.469 47.469 0 0 1 367.3 3.9 Q 372.9 3.9 378.3 5.65 Q 383.7 7.4 387.6 10.3 L 386.5 11.9 Q 382.4 8.9 377.35 7.35 A 34.626 34.626 0 0 0 369.551 5.874 A 31.358 31.358 0 0 0 367.4 5.8 Q 360.52 5.8 355.786 7.711 A 17.087 17.087 0 0 0 351.4 10.25 A 15.072 15.072 0 0 0 347.545 14.786 A 14.088 14.088 0 0 0 345.9 21.6 A 16.322 16.322 0 0 0 346.291 25.276 A 11.067 11.067 0 0 0 348.8 30.25 A 17.771 17.771 0 0 0 355.933 35.075 A 20.63 20.63 0 0 0 356 35.1 A 64.866 64.866 0 0 0 358.98 36.12 Q 362.581 37.263 367.6 38.5 A 167.628 167.628 0 0 1 372.047 39.673 Q 376.606 40.947 379.7 42.15 Q 384.2 43.9 387.3 47.45 Q 390.243 50.82 390.392 56.397 A 22.517 22.517 0 0 1 390.4 57 Q 390.4 61.8 387.8 65.8 A 15.548 15.548 0 0 1 383.643 70.039 A 21.821 21.821 0 0 1 379.85 72.15 A 25.491 25.491 0 0 1 374.662 73.756 Q 372.144 74.268 369.231 74.427 A 49.899 49.899 0 0 1 366.5 74.5 Q 358.9 74.5 352.2 71.75 A 32.28 32.28 0 0 1 347.268 69.243 Q 344.038 67.213 341.9 64.6 Z M 45.1 6.1 L 2 6.1 L 2 39.7 L 40.6 39.7 L 40.6 41.6 L 2 41.6 L 2 74.2 L 0 74.2 L 0 4.2 L 45.1 4.2 L 45.1 6.1 Z M 118 58.4 L 118 74.2 L 116 74.2 L 116 0 L 118 0 L 118 38.2 Q 120.6 30.9 126.85 26.55 Q 133.1 22.2 141.099 22.2 A 25.178 25.178 0 0 1 151.65 24.412 A 24.604 24.604 0 0 1 153.85 25.55 Q 159.6 28.9 162.9 34.85 A 26.438 26.438 0 0 1 166.084 45.542 A 32.245 32.245 0 0 1 166.2 48.3 A 29.336 29.336 0 0 1 165.037 56.677 A 25.834 25.834 0 0 1 162.9 61.8 Q 159.6 67.8 153.85 71.15 Q 148.1 74.5 141.1 74.5 A 25.561 25.561 0 0 1 132.151 72.966 A 23.497 23.497 0 0 1 126.8 70.15 Q 120.6 65.8 118 58.4 Z M 288.8 64.6 L 290.2 63.4 A 22.362 22.362 0 0 0 294.256 68.069 A 19.614 19.614 0 0 0 297.25 70.2 Q 301.4 72.6 306.3 72.6 Q 311.741 72.6 315.185 70.378 A 11.027 11.027 0 0 0 317.7 68.15 A 13.895 13.895 0 0 0 320.096 63.767 Q 320.789 61.767 321.113 59.305 A 36.067 36.067 0 0 0 321.4 54.6 L 321.4 6.1 L 295.2 6.1 L 295.2 4.2 L 323.4 4.2 L 323.4 54.8 A 32.831 32.831 0 0 1 322.635 62.234 Q 319.772 74.5 306.2 74.5 Q 300.9 74.5 296.25 71.85 Q 291.6 69.2 288.8 64.6 Z M 93.6 40.3 L 93.6 74.2 L 91.6 74.2 L 91.6 63.2 Q 89.1 68.5 84.05 71.5 A 20.904 20.904 0 0 1 77.134 74.042 A 28.602 28.602 0 0 1 71.9 74.5 A 30.289 30.289 0 0 1 66.66 74.075 Q 63.72 73.558 61.377 72.412 A 15.157 15.157 0 0 1 58.45 70.55 A 12.711 12.711 0 0 1 53.646 61.264 A 16.965 16.965 0 0 1 53.6 60 A 14.35 14.35 0 0 1 54.403 55.106 A 12.444 12.444 0 0 1 57.95 49.95 Q 62.13 46.251 71.248 46.106 A 47.314 47.314 0 0 1 72 46.1 L 91.6 46.1 L 91.6 40.4 A 25.168 25.168 0 0 0 91.197 35.742 Q 90.71 33.161 89.635 31.147 A 12.169 12.169 0 0 0 87.45 28.2 A 13.167 13.167 0 0 0 82.12 25.062 Q 80.06 24.401 77.562 24.194 A 28.661 28.661 0 0 0 75.2 24.1 A 28.373 28.373 0 0 0 66.908 25.29 A 26.196 26.196 0 0 0 64.75 26.05 A 27.374 27.374 0 0 0 58.597 29.46 A 24.525 24.525 0 0 0 56.4 31.3 L 55 29.9 A 25.544 25.544 0 0 1 61.913 25.147 A 30.428 30.428 0 0 1 64 24.25 Q 69.3 22.2 75.1 22.2 A 27.875 27.875 0 0 1 80.43 22.677 Q 83.512 23.278 85.903 24.637 A 14.267 14.267 0 0 1 88.85 26.85 A 14.956 14.956 0 0 1 92.723 33.504 Q 93.408 35.859 93.558 38.682 A 30.518 30.518 0 0 1 93.6 40.3 Z M 283.3 30.6 L 281.9 32.1 Q 279 28.1 274.5 26.1 Q 270 24.1 264.7 24.1 A 25.28 25.28 0 0 0 257.036 25.233 A 22.572 22.572 0 0 0 252.65 27.15 Q 247.3 30.2 244.3 35.75 A 25.079 25.079 0 0 0 241.424 45.516 A 30.752 30.752 0 0 0 241.3 48.3 A 28.62 28.62 0 0 0 242.147 55.392 A 23.66 23.66 0 0 0 244.3 60.9 Q 247.3 66.4 252.65 69.5 A 23.168 23.168 0 0 0 263.046 72.552 A 27.922 27.922 0 0 0 264.7 72.6 A 24.626 24.626 0 0 0 271.905 71.567 A 22.524 22.524 0 0 0 274.5 70.6 Q 279 68.6 281.9 64.6 L 283.3 66.1 Q 280.1 70.2 275.25 72.35 A 25.415 25.415 0 0 1 265.849 74.478 A 29.561 29.561 0 0 1 264.7 74.5 A 27.32 27.32 0 0 1 256.56 73.319 A 24.266 24.266 0 0 1 251.6 71.15 Q 245.8 67.8 242.55 61.85 A 26.63 26.63 0 0 1 239.479 51.772 A 33.049 33.049 0 0 1 239.3 48.3 Q 239.3 40.7 242.55 34.75 Q 245.8 28.8 251.6 25.5 A 25.393 25.393 0 0 1 262.455 22.281 A 30.834 30.834 0 0 1 264.7 22.2 A 26.495 26.495 0 0 1 272.613 23.36 A 24.338 24.338 0 0 1 275.25 24.35 Q 280.1 26.5 283.3 30.6 Z M 205.4 22.2 L 205.4 24.2 L 204.8 24.2 Q 195.5 24.2 190.3 30.15 A 20.011 20.011 0 0 0 186.095 38.22 Q 185.1 41.894 185.1 46.4 L 185.1 74.2 L 183.1 74.2 L 183.1 22.5 L 185.1 22.5 L 185.1 35.9 A 21.233 21.233 0 0 1 188.036 30.082 A 18.087 18.087 0 0 1 192.5 25.75 Q 197.7 22.2 205.4 22.2 Z M 141.1 72.6 A 23.474 23.474 0 0 0 150 70.928 A 22.396 22.396 0 0 0 152.9 69.5 Q 158.2 66.4 161.2 60.85 A 25.079 25.079 0 0 0 164.076 51.084 A 30.752 30.752 0 0 0 164.2 48.3 A 28.068 28.068 0 0 0 163.251 40.884 A 24.098 24.098 0 0 0 161.2 35.75 Q 158.2 30.2 152.9 27.15 A 23.096 23.096 0 0 0 141.707 24.107 A 27.353 27.353 0 0 0 141.1 24.1 A 23.872 23.872 0 0 0 132.42 25.659 A 22.528 22.528 0 0 0 129.3 27.15 Q 124 30.2 121 35.75 A 25.079 25.079 0 0 0 118.124 45.516 A 30.752 30.752 0 0 0 118 48.3 A 28.068 28.068 0 0 0 118.949 55.716 A 24.098 24.098 0 0 0 121 60.85 Q 124 66.4 129.3 69.5 A 22.853 22.853 0 0 0 140.695 72.597 A 27.023 27.023 0 0 0 141.1 72.6 Z M 220.4 74.2 L 220.4 22.5 L 222.4 22.5 L 222.4 74.2 L 220.4 74.2 Z M 91.6 59.4 L 91.6 48 L 71.9 48 Q 63.936 48 59.972 50.876 A 10.005 10.005 0 0 0 59.55 51.2 A 10.385 10.385 0 0 0 55.641 58.807 A 14.395 14.395 0 0 0 55.6 59.9 A 13.024 13.024 0 0 0 56.256 64.128 A 10.836 10.836 0 0 0 59.9 69.2 A 14.433 14.433 0 0 0 64.678 71.64 Q 66.733 72.27 69.201 72.487 A 30.91 30.91 0 0 0 71.9 72.6 A 24.014 24.014 0 0 0 80.011 71.311 Q 87.956 68.475 91.6 59.4 Z M 221.4 8.2 Q 220.3 8.2 219.55 7.4 A 2.89 2.89 0 0 1 219.024 6.634 A 2.442 2.442 0 0 1 218.8 5.6 A 2.659 2.659 0 0 1 218.999 4.559 A 2.52 2.52 0 0 1 219.55 3.75 A 2.508 2.508 0 0 1 221.366 3 A 3.201 3.201 0 0 1 221.4 3 Q 222.4 3 223.2 3.75 Q 224 4.5 224 5.6 A 2.381 2.381 0 0 1 223.472 7.093 A 3.272 3.272 0 0 1 223.2 7.4 A 2.949 2.949 0 0 1 222.517 7.918 A 2.319 2.319 0 0 1 221.4 8.2 Z" vector-effect="non-scaling-stroke"/></g></svg>