<svg width="330.4" height="71.501" viewBox="0 0 330.4 71.501" xmlns="http://www.w3.org/2000/svg"><g id="svgGroup" stroke-linecap="round" fill-rule="evenodd" font-size="9pt" stroke="#000" stroke-width="0.25mm" fill="black" style="stroke:#000;stroke-width:0.25mm;fill:black"><path d="M 267.2 71.2 L 234.9 34.7 L 217.5 52.6 L 217.5 71.2 L 215.5 71.2 L 215.5 1.2 L 217.5 1.2 L 217.5 49.9 L 264.9 1.2 L 267.6 1.2 L 236.4 33.3 L 269.9 71.2 L 267.2 71.2 Z M 197.7 3.1 L 154.6 3.1 L 154.6 36.7 L 193.2 36.7 L 193.2 38.6 L 154.6 38.6 L 154.6 71.2 L 152.6 71.2 L 152.6 1.2 L 197.7 1.2 L 197.7 3.1 Z M 70 71.2 L 70 1.2 L 96.5 1.2 Q 107.4 1.2 115.75 5.7 Q 124.1 10.2 128.75 18.2 A 34.611 34.611 0 0 1 133.344 34.036 A 41.662 41.662 0 0 1 133.4 36.2 A 36.948 36.948 0 0 1 131.584 47.919 A 33.447 33.447 0 0 1 128.75 54.2 Q 124.1 62.2 115.75 66.7 A 37.358 37.358 0 0 1 103.063 70.761 A 47.585 47.585 0 0 1 96.5 71.2 L 70 71.2 Z M 72 69.3 L 96.3 69.3 A 43.96 43.96 0 0 0 106.018 68.27 A 34.638 34.638 0 0 0 114.75 65.05 Q 122.7 60.8 127.05 53.25 A 32.818 32.818 0 0 0 131.314 38.833 A 39.796 39.796 0 0 0 131.4 36.2 A 35.633 35.633 0 0 0 129.866 25.606 A 31.631 31.631 0 0 0 127.05 19.15 Q 122.7 11.6 114.75 7.35 A 35.592 35.592 0 0 0 103.217 3.602 A 46.063 46.063 0 0 0 96.3 3.1 L 72 3.1 L 72 69.3 Z M 23.7 47.2 L 2 47.2 L 2 71.2 L 0 71.2 L 0 1.2 L 23.7 1.2 A 44.346 44.346 0 0 1 31.735 1.883 Q 36.251 2.716 39.827 4.565 A 22.706 22.706 0 0 1 43.9 7.25 A 19.727 19.727 0 0 1 50.922 20.127 A 28.714 28.714 0 0 1 51.2 24.2 Q 51.2 35.1 43.9 41.15 A 24.509 24.509 0 0 1 35.042 45.734 Q 31.453 46.788 27.164 47.084 A 50.288 50.288 0 0 1 23.7 47.2 Z M 329 66.4 L 330.4 67.8 A 9.973 9.973 0 0 1 327.754 69.777 A 13.053 13.053 0 0 1 325.95 70.55 Q 323.2 71.5 320.3 71.5 A 16.713 16.713 0 0 1 316.579 71.111 Q 313.998 70.521 312.128 69.04 A 10.066 10.066 0 0 1 311.05 68.05 A 11.619 11.619 0 0 1 308.167 62.432 A 17.046 17.046 0 0 1 307.8 58.8 L 307.8 21.4 L 297.8 21.4 L 297.8 19.5 L 307.8 19.5 L 307.8 8.2 L 309.8 8.2 L 309.8 19.5 L 327.3 19.5 L 327.3 21.4 L 309.8 21.4 L 309.8 58.3 A 17.995 17.995 0 0 0 310.064 61.484 Q 310.644 64.706 312.5 66.7 A 8.634 8.634 0 0 0 316.522 69.103 Q 317.924 69.507 319.608 69.583 A 17.637 17.637 0 0 0 320.4 69.6 A 13.851 13.851 0 0 0 324.588 68.993 A 11.341 11.341 0 0 0 329 66.4 Z M 23.9 3.1 L 2 3.1 L 2 45.3 L 23.9 45.3 Q 32.168 45.3 37.842 42.774 A 20.211 20.211 0 0 0 42.65 39.8 A 17.898 17.898 0 0 0 48.816 28.822 A 26.58 26.58 0 0 0 49.2 24.2 A 24.889 24.889 0 0 0 48.39 17.667 A 17.549 17.549 0 0 0 42.65 8.6 A 21.408 21.408 0 0 0 35.268 4.652 Q 32.137 3.658 28.352 3.3 A 47.405 47.405 0 0 0 23.9 3.1 Z M 282 71.2 L 282 19.5 L 284 19.5 L 284 71.2 L 282 71.2 Z M 283 5.2 Q 281.9 5.2 281.15 4.4 A 2.89 2.89 0 0 1 280.624 3.634 A 2.442 2.442 0 0 1 280.4 2.6 A 2.659 2.659 0 0 1 280.599 1.559 A 2.52 2.52 0 0 1 281.15 0.75 A 2.508 2.508 0 0 1 282.966 0 A 3.201 3.201 0 0 1 283 0 Q 284 0 284.8 0.75 Q 285.6 1.5 285.6 2.6 A 2.381 2.381 0 0 1 285.072 4.093 A 3.272 3.272 0 0 1 284.8 4.4 A 2.949 2.949 0 0 1 284.117 4.918 A 2.319 2.319 0 0 1 283 5.2 Z" vector-effect="non-scaling-stroke"/></g></svg>