<?xml version="1.0" encoding="utf-8"?>
<!-- Generator: Adobe Illustrator 25.2.0, SVG Export Plug-In . SVG Version: 6.00 Build 0)  -->
<svg version="1.1" id="Camada_1" xmlns="http://www.w3.org/2000/svg" xmlns:xlink="http://www.w3.org/1999/xlink" x="0px" y="0px"
	 viewBox="0 0 235.6036 65.0791" style="enable-background:new 0 0 235.6036 65.0791;" xml:space="preserve">
<style type="text/css">
	.st0{fill:url(#SVGID_1_);}
	.st1{fill:#353636;}
</style>
<linearGradient id="SVGID_1_" gradientUnits="userSpaceOnUse" x1="7.3323" y1="28.5473" x2="48.1431" y2="28.5473">
	<stop  offset="0" style="stop-color:#464DF8"/>
	<stop  offset="1" style="stop-color:#25C9F5"/>
</linearGradient>
<path class="st0" d="M31.0087,49.7454c-1.3143,0-2.5935-0.6858-3.2905-1.9077L7.8313,13.0124
	c-0.7025-1.2293-0.6599-2.7451,0.1072-3.9319c0.7653-1.1886,2.1018-1.843,3.54-1.7155l33.2392,3.1722
	c1.4641,0.1405,2.7137,1.1165,3.2073,2.5011c0.4917,1.3864,0.1368,2.9337-0.9113,3.9652L36.1015,27.7511
	c-1.4899,1.4678-3.8857,1.4493-5.3535-0.0407c-1.4678-1.49-1.4493-3.8857,0.0407-5.3535l5.1298-5.0522l-17.8923-1.7081
	l16.2656,28.4847c1.0371,1.8172,0.4067,4.1297-1.4086,5.1649C32.2897,49.5846,31.6446,49.7454,31.0087,49.7454z"/>
<g>
	<g>
		<path class="st1" d="M64.1776,17.9902h-8.5154v20.8947h3.6805v-7.9961h4.8349c4.5402,0,7.2514-2.4126,7.2514-6.4653
			C71.4291,20.3933,68.7178,17.9902,64.1776,17.9902 M64.24,27.5085h-4.8973v-6.0211H64.24c1.657,0,3.6314,0.5177,3.6314,2.9661
			C67.8713,26.9779,65.8969,27.5085,64.24,27.5085"/>
		<path class="st1" d="M83.6339,17.5796c-5.7475,0-9.3184,4.1718-9.3184,10.8864c0,6.6788,3.5709,10.8299,9.3184,10.8299
			c5.7664,0,9.3506-4.1512,9.3506-10.8299C92.9845,21.7514,89.4003,17.5796,83.6339,17.5796 M83.6339,35.7966
			c-3.6352,0-5.636-2.6034-5.636-7.3306c0-4.7252,2.0009-7.3287,5.636-7.3287c3.6541,0,5.6682,2.6036,5.6682,7.3287
			C89.3021,33.1933,87.288,35.7966,83.6339,35.7966"/>
		<polygon class="st1" points="100.3846,17.9896 96.7003,17.9896 96.7003,38.8863 110.404,38.8863 110.404,35.4157 
			100.3846,35.4157 		"/>
		<path class="st1" d="M120.4142,17.9892l-7.8504,20.8966h4.0697l1.3849-3.9222h7.8523l1.4189,3.9222h4.1l-7.8844-20.8966H120.4142z
			 M124.7824,31.551h-5.6776l2.8265-8.0012L124.7824,31.551z"/>
		<path class="st1" d="M150.0873,24.3096c0-3.9583-2.7113-6.32-7.2533-6.32h-8.5135v20.8967h3.6786v-7.9981h3.9412l4.3777,7.9981
			h4.3739l-5.0012-8.5194C148.4926,29.5717,150.0873,27.3876,150.0873,24.3096 M146.5296,24.453
			c0,2.5246-1.9593,3.0555-3.603,3.0555h-4.9275v-6.0196h4.9275C144.5703,21.4889,146.5296,22.0045,146.5296,24.453"/>
		<rect x="154.1438" y="17.9892" class="st1" width="3.6824" height="20.8966"/>
		<path class="st1" d="M170.9487,26.0841l-0.393-0.113c-2.5771-0.7293-4.1585-1.2547-4.1585-2.7474
			c0-1.1187,1.6249-1.9988,3.6937-1.9988c1.8459,0,3.3801,0.6103,4.5553,1.81l0.2059,0.2112l2.715-2.3653l-0.2116-0.2381
			c-1.6211-1.8155-4.2606-2.8584-7.2325-2.8584c-4.3758,0-7.3138,2.1858-7.3138,5.4393c0,4.5782,5.4206,5.8535,7.7313,6.3991
			c2.972,0.7165,4.355,1.7911,4.355,3.3858c0,1.6574-1.8724,2.7285-4.7726,2.7285c-2.5053,0-4.6498-0.7578-6.0385-2.1329
			l-0.2078-0.208l-2.6716,2.3636l0.2003,0.2343c1.7477,2.0443,4.7953,3.1252,8.8102,3.1252c4.0112,0,8.3-1.6362,8.3-6.2297
			C178.5157,28.2816,174.3212,27.0666,170.9487,26.0841"/>
		<rect x="182.203" y="17.9892" class="st1" width="3.6824" height="20.8966"/>
		<polygon class="st1" points="202.5543,32.1526 193.6062,17.9902 189.9124,17.9902 189.9124,38.8848 193.5929,38.8848 
			193.5929,24.7483 202.5391,38.8848 206.2348,38.8848 206.2348,17.9902 202.5543,17.9902 		"/>
		<path class="st1" d="M219.7248,28.0343v3.354h4.474v0.3021c0,2.2238-2.1879,4.1058-4.7745,4.1058
			c-3.6994,0-5.8212-2.6718-5.8212-7.3293c0-4.6588,2.1218-7.3287,5.8212-7.3287c1.8233,0,3.467,0.8183,4.7518,2.3751l0.1871,0.2246
			l2.7642-1.9534l-0.1606-0.2515c-1.7061-2.6638-4.1529-3.9526-7.4801-3.9526c-5.8987,0-9.5641,4.1718-9.5641,10.8864
			c0,6.6793,3.6408,10.8284,9.5017,10.8284c5.9043,0,8.5457-4.1417,8.5457-8.2513v-3.0098H219.7248z"/>
	</g>
</g>
<g>
	<path class="st1" d="M117.8504,49.3139v1.115h-4.4402v-1.115H117.8504z M114.7047,47.2602h1.3159v8.1656
		c0,0.3712,0.0552,0.6503,0.1641,0.8344c0.1104,0.1841,0.2515,0.3068,0.4233,0.3681c0.1733,0.0614,0.3574,0.092,0.5506,0.092
		c0.1442,0,0.2638-0.0092,0.3558-0.0261c0.0936-0.0169,0.1672-0.0307,0.2239-0.0414l0.2669,1.1825
		c-0.089,0.0337-0.2132,0.0675-0.3727,0.1028c-0.161,0.0353-0.3635,0.0537-0.6089,0.0537c-0.3712,0-0.7347-0.0798-1.0905-0.2408
		c-0.3543-0.1595-0.6488-0.4034-0.8804-0.7301c-0.2331-0.3267-0.3482-0.7393-0.3482-1.2377V47.2602z"/>
	<path class="st1" d="M123.3381,58.0578c-0.8252,0-1.5368-0.1825-2.1334-0.5491c-0.5966-0.3666-1.0552-0.8788-1.3773-1.5383
		c-0.3221-0.661-0.4816-1.4294-0.4816-2.3067c0-0.8773,0.1595-1.6518,0.4816-2.3236c0.3221-0.6702,0.7715-1.1948,1.3497-1.5721
		c0.5782-0.3773,1.2546-0.566,2.0276-0.566c0.4463,0,0.8865,0.0736,1.3221,0.2224c0.4341,0.1488,0.8313,0.3896,1.1871,0.7224
		c0.3574,0.3328,0.6426,0.773,0.8543,1.319c0.2117,0.5475,0.3175,1.2193,0.3175,2.0199v0.5568h-6.6028v-1.138h5.2638
		c0-0.4831-0.0951-0.9141-0.2868-1.2929c-0.1917-0.3804-0.4632-0.6794-0.8144-0.8988c-0.3512-0.2193-0.7653-0.3282-1.2408-0.3282
		c-0.5245,0-0.977,0.1288-1.3574,0.3865c-0.3819,0.2592-0.6749,0.5951-0.8788,1.0077c-0.2055,0.4126-0.3067,0.8543-0.3067,1.3267
		v0.7592c0,0.6472,0.112,1.1948,0.3374,1.6426c0.2239,0.4479,0.5383,0.7883,0.9402,1.0199
		c0.4003,0.2331,0.8681,0.3482,1.3988,0.3482c0.3466,0,0.6595-0.0491,0.9402-0.1472c0.2807-0.0982,0.523-0.2469,0.7285-0.4463
		c0.204-0.1979,0.362-0.4463,0.4739-0.7439l1.2715,0.3558c-0.135,0.4325-0.3589,0.8098-0.6749,1.135
		c-0.3159,0.3267-0.7071,0.5782-1.1718,0.7592C124.4409,57.9688,123.9179,58.0578,123.3381,58.0578z"/>
	<path class="st1" d="M132.3749,58.0578c-0.8037,0-1.4954-0.1886-2.0751-0.569c-0.5798-0.3788-1.0261-0.9003-1.339-1.566
		s-0.4678-1.4264-0.4678-2.2822c0-0.8696,0.1595-1.638,0.4816-2.3052c0.3221-0.6672,0.7715-1.1902,1.3497-1.5675
		s1.2546-0.566,2.0276-0.566c0.6028,0,1.1457,0.112,1.6288,0.3344c0.4831,0.2224,0.8788,0.5353,1.1871,0.9371
		c0.3098,0.4018,0.5,0.8696,0.5751,1.4049h-1.3159c-0.1012-0.3896-0.3236-0.7362-0.6672-1.0399
		c-0.3436-0.3021-0.8052-0.454-1.385-0.454c-0.5138,0-0.9632,0.1319-1.3482,0.3988c-0.385,0.2653-0.6841,0.6396-0.8972,1.1212
		c-0.2147,0.4816-0.3206,1.0445-0.3206,1.6917c0,0.6626,0.1043,1.2393,0.3144,1.7301c0.2101,0.4908,0.5077,0.8712,0.8926,1.1426
		c0.385,0.2715,0.8374,0.4064,1.3589,0.4064c0.342,0,0.6518-0.0583,0.931-0.1779c0.2791-0.1181,0.5153-0.2899,0.7086-0.5123
		c0.1933-0.2239,0.3298-0.4908,0.4126-0.8037h1.3159c-0.0751,0.5061-0.2577,0.9601-0.5491,1.3635
		c-0.2929,0.4034-0.6779,0.7239-1.1549,0.9586C133.5605,57.9397,133.0068,58.0578,132.3749,58.0578z"/>
	<path class="st1" d="M138.9777,52.7265v5.1534h-1.3175V46.4581h1.3175v4.1933h0.1104c0.2009-0.4417,0.5031-0.7945,0.9064-1.0567
		c0.4034-0.2623,0.9417-0.3926,1.615-0.3926c0.5844,0,1.0951,0.1166,1.5338,0.3482c0.4386,0.2331,0.7791,0.5874,1.023,1.066
		c0.2439,0.477,0.365,1.0844,0.365,1.8205v5.4433h-1.3159v-5.3543c0-0.681-0.1749-1.2071-0.5261-1.5813
		c-0.3512-0.3727-0.8374-0.5598-1.4586-0.5598c-0.4325,0-0.8175,0.0905-1.158,0.273c-0.3405,0.1825-0.6074,0.4479-0.8022,0.7975
		C139.0743,51.8047,138.9777,52.228,138.9777,52.7265z"/>
	<path class="st1" d="M155.0851,49.3139v1.115h-4.4402v-1.115H155.0851z M151.9393,47.2602h1.3159v8.1656
		c0,0.3712,0.0552,0.6503,0.1641,0.8344c0.1104,0.1841,0.2515,0.3068,0.4233,0.3681c0.1733,0.0614,0.3574,0.092,0.5506,0.092
		c0.1442,0,0.2638-0.0092,0.3558-0.0261c0.0936-0.0169,0.1672-0.0307,0.2239-0.0414l0.2669,1.1825
		c-0.089,0.0337-0.2132,0.0675-0.3727,0.1028c-0.161,0.0353-0.3635,0.0537-0.6089,0.0537c-0.3712,0-0.7347-0.0798-1.0905-0.2408
		c-0.3543-0.1595-0.6488-0.4034-0.8804-0.7301c-0.2331-0.3267-0.3482-0.7393-0.3482-1.2377V47.2602z"/>
	<path class="st1" d="M158.5651,52.7265v5.1534h-1.3175V46.4581h1.3175v4.1933h0.1104c0.2009-0.4417,0.5031-0.7945,0.9064-1.0567
		c0.4034-0.2623,0.9417-0.3926,1.615-0.3926c0.5844,0,1.0951,0.1166,1.5337,0.3482c0.4386,0.2331,0.7791,0.5874,1.023,1.066
		c0.2439,0.477,0.365,1.0844,0.365,1.8205v5.4433h-1.3159v-5.3543c0-0.681-0.1748-1.2071-0.5261-1.5813
		c-0.3512-0.3727-0.8374-0.5598-1.4586-0.5598c-0.4325,0-0.8175,0.0905-1.158,0.273c-0.3405,0.1825-0.6074,0.4479-0.8021,0.7975
		C158.6617,51.8047,158.5651,52.228,158.5651,52.7265z"/>
	<path class="st1" d="M169.0498,58.0808c-0.5429,0-1.0353-0.1028-1.4785-0.3098c-0.4417-0.2055-0.793-0.5061-1.0537-0.8972
		c-0.2607-0.3926-0.3896-0.8681-0.3896-1.4248c0-0.4908,0.0966-0.8896,0.2899-1.1963s0.4509-0.5475,0.7745-0.7224
		s0.681-0.3067,1.0736-0.3942c0.3926-0.0874,0.7868-0.1564,1.1856-0.2086c0.5199-0.0675,0.9433-0.1181,1.2684-0.1534
		c0.3251-0.0353,0.5629-0.0951,0.7147-0.181c0.1503-0.0859,0.2254-0.2347,0.2254-0.4463v-0.0445
		c0-0.5506-0.1503-0.9785-0.4494-1.2837c-0.2991-0.3037-0.7515-0.4571-1.3574-0.4571c-0.6288,0-1.1212,0.138-1.4785,0.4126
		c-0.3574,0.2761-0.6074,0.569-0.7531,0.8819l-1.2485-0.4463c0.2224-0.5199,0.5215-0.9264,0.8942-1.2193
		c0.3742-0.2914,0.7838-0.4954,1.227-0.6135c0.4448-0.1166,0.8819-0.1748,1.3144-0.1748c0.2746,0,0.592,0.0322,0.9509,0.0966
		c0.3589,0.0659,0.7055,0.1994,1.0429,0.3988c0.3359,0.2009,0.615,0.5046,0.839,0.9095c0.2224,0.4049,0.3344,0.9479,0.3344,1.6288
		v5.6442h-1.316v-1.1595h-0.0675c-0.089,0.1856-0.2377,0.385-0.4463,0.5966c-0.2071,0.2117-0.4847,0.3926-0.8298,0.5399
		C169.97,58.0056,169.5482,58.0808,169.0498,58.0808z M169.2507,56.8983c0.5199,0,0.9601-0.1028,1.319-0.3067
		s0.6304-0.4678,0.8144-0.7914s0.2761-0.6641,0.2761-1.0215v-1.204c-0.0552,0.066-0.1779,0.1273-0.365,0.181
		c-0.1887,0.0537-0.4034,0.0997-0.6472,0.1396c-0.2439,0.0383-0.4801,0.0721-0.7086,0.0997s-0.4141,0.0521-0.5552,0.0706
		c-0.342,0.0445-0.661,0.1166-0.9555,0.2147c-0.296,0.0982-0.5338,0.2454-0.7147,0.4402c-0.1794,0.1948-0.2699,0.4601-0.2699,0.7945
		c0,0.4571,0.1702,0.8021,0.5107,1.0353C168.2936,56.7817,168.7262,56.8983,169.2507,56.8983z"/>
	<path class="st1" d="M179.1127,49.3139v1.115h-4.4402v-1.115H179.1127z M175.967,47.2602h1.3159v8.1656
		c0,0.3712,0.0552,0.6503,0.1641,0.8344c0.1104,0.1841,0.2515,0.3068,0.4233,0.3681c0.1733,0.0614,0.3574,0.092,0.5506,0.092
		c0.1442,0,0.2638-0.0092,0.3558-0.0261c0.0936-0.0169,0.1672-0.0307,0.2239-0.0414l0.2669,1.1825
		c-0.089,0.0337-0.2132,0.0675-0.3727,0.1028c-0.161,0.0353-0.3635,0.0537-0.6089,0.0537c-0.3712,0-0.7347-0.0798-1.0905-0.2408
		c-0.3543-0.1595-0.6488-0.4034-0.8804-0.7301c-0.2331-0.3267-0.3482-0.7393-0.3482-1.2377V47.2602z"/>
	<path class="st1" d="M187.4562,57.8799l-2.6104-8.566h1.3834l1.8512,6.5583h0.089l1.8297-6.5583h1.4049l1.8083,6.5353h0.089
		l1.8512-6.5353h1.3834l-2.6104,8.566h-1.2945l-1.8727-6.5813h-0.135l-1.8727,6.5813H187.4562z"/>
	<path class="st1" d="M201.467,58.0578c-0.7745,0-1.4525-0.184-2.0338-0.5521c-0.5813-0.3681-1.0353-0.8819-1.3604-1.5445
		c-0.3251-0.661-0.4877-1.4356-0.4877-2.3205c0-0.8911,0.1626-1.6702,0.4877-2.3359c0.3252-0.6656,0.7791-1.1825,1.3604-1.5506
		c0.5813-0.3681,1.2592-0.5521,2.0338-0.5521c0.773,0,1.4509,0.184,2.0322,0.5521c0.5813,0.3681,1.0353,0.885,1.3604,1.5506
		c0.3251,0.6656,0.4877,1.4448,0.4877,2.3359c0,0.885-0.1626,1.6595-0.4877,2.3205c-0.3252,0.6626-0.7791,1.1764-1.3604,1.5445
		C202.9179,57.8737,202.24,58.0578,201.467,58.0578z M201.467,56.8753c0.5874,0,1.0705-0.1503,1.4494-0.4509
		c0.3788-0.3006,0.6595-0.6979,0.842-1.1887c0.1825-0.4908,0.273-1.0215,0.273-1.5951c0-0.5721-0.0905-1.1058-0.273-1.5997
		c-0.1825-0.4954-0.4632-0.8942-0.842-1.1994c-0.3788-0.3052-0.862-0.4571-1.4494-0.4571c-0.589,0-1.0721,0.1518-1.4509,0.4571
		c-0.3788,0.3052-0.6595,0.704-0.842,1.1994c-0.1825,0.4939-0.273,1.0276-0.273,1.5997c0,0.5736,0.0905,1.1043,0.273,1.5951
		c0.1825,0.4908,0.4632,0.888,0.842,1.1887C200.3949,56.725,200.878,56.8753,201.467,56.8753z"/>
	<path class="st1" d="M207.355,57.8799v-8.566h1.273v1.2929h0.089c0.1564-0.4233,0.4386-0.7669,0.8466-1.0322
		c0.4095-0.2638,0.8712-0.3957,1.3834-0.3957c0.0966,0,0.2178,0.0031,0.3635,0.0061c0.1442,0.0031,0.2546,0.0092,0.3282,0.0169
		v1.339c-0.0445-0.0123-0.1457-0.0291-0.3037-0.0537c-0.158-0.0245-0.3252-0.0368-0.4985-0.0368
		c-0.4172,0-0.7883,0.0874-1.1135,0.2592c-0.3251,0.1733-0.5813,0.411-0.7699,0.7147c-0.1871,0.3037-0.2807,0.6472-0.2807,1.0337
		v5.4218H207.355z"/>
	<path class="st1" d="M213.2001,57.8799V46.4581h1.3175v11.4218H213.2001z M214.4271,54.7572l-0.0215-1.6288h0.2669l3.7485-3.8144
		h1.6288l-3.9939,4.0368h-0.1104L214.4271,54.7572z M218.6449,57.8799l-3.3466-4.2393l0.9371-0.9141l4.0813,5.1534H218.6449z"/>
	<path class="st1" d="M227.8136,51.2311l-1.1825,0.3359c-0.0751-0.1979-0.1841-0.3896-0.3267-0.5782
		c-0.1426-0.1871-0.3374-0.342-0.5828-0.4647c-0.2454-0.1227-0.5598-0.184-0.9417-0.184c-0.5245,0-0.9601,0.1196-1.3083,0.3589
		c-0.3481,0.2408-0.5215,0.5445-0.5215,0.9126c0,0.3267,0.1181,0.5859,0.3574,0.7745c0.2377,0.1902,0.6089,0.3482,1.115,0.4739
		l1.2715,0.3129c0.7653,0.1856,1.3359,0.4693,1.7117,0.8497c0.3758,0.3819,0.5644,0.8712,0.5644,1.4709
		c0,0.4908-0.1411,0.9294-0.4218,1.3159c-0.2807,0.3865-0.6718,0.6917-1.1733,0.9141c-0.5031,0.2239-1.0859,0.3344-1.7515,0.3344
		c-0.8742,0-1.5966-0.1886-2.1703-0.569c-0.5721-0.3788-0.9341-0.9325-1.0874-1.661l1.25-0.3129
		c0.1181,0.4617,0.3451,0.8067,0.6779,1.0383c0.3313,0.2301,0.7684,0.3451,1.3067,0.3451c0.6135,0,1.1012-0.1304,1.4647-0.3926
		c0.362-0.2623,0.5429-0.5782,0.5429-0.9463c0-0.2975-0.1043-0.5475-0.3113-0.75c-0.2086-0.2025-0.5291-0.3543-0.9601-0.454
		l-1.4279-0.3344c-0.7837-0.1871-1.3589-0.4755-1.7254-0.8681c-0.3666-0.3926-0.5491-0.8834-0.5491-1.4755
		c0-0.4831,0.1365-0.911,0.4095-1.2822c0.273-0.3712,0.6472-0.6641,1.1212-0.8758c0.4739-0.2117,1.0123-0.3175,1.615-0.3175
		c0.8466,0,1.5138,0.1856,1.9985,0.5567C227.2645,50.1314,227.6081,50.6222,227.8136,51.2311z"/>
</g>
</svg>
