<?xml version="1.0" encoding="utf-8"?>
<!-- Generator: Adobe Illustrator 24.0.2, SVG Export Plug-In . SVG Version: 6.00 Build 0)  -->
<svg version="1.1" id="Layer_1" xmlns="http://www.w3.org/2000/svg" xmlns:xlink="http://www.w3.org/1999/xlink" x="0px" y="0px"
	 viewBox="0 0 841.89 168.96" style="enable-background:new 0 0 841.89 168.96;" xml:space="preserve">
<style type="text/css">
	.st0{fill:#FFFFFF;}
	.st1{fill:none;stroke:#000000;stroke-miterlimit:10;}
	.st2{fill:none;stroke:#A4254A;stroke-miterlimit:10;}
</style>
<g>
	<g>
		<path d="M33.85,4.01l13.81,59.92L61.21,4.01h29.44l13.81,59.92L118,4.01h30.87l-29.83,91.32H87.91L75.28,40.74L62.25,95.32H31.12
			L1.55,4.01H33.85z"/>
		<path d="M212.95,82.43h-34.26L174,95.32h-31l38.56-91.32h31l37.12,91.32h-32.17L212.95,82.43z M205.52,60.8l-9.38-26.71
			L186.5,60.8H205.52z"/>
	</g>
	<path d="M449.89,9.35c-23.06,0-41.68,17.97-41.68,40.25c0,22.41,18.63,40.51,41.68,40.51c10.81,0,20.97-4.17,28.66-11.07l3.39,3.78
		c-8.47,7.81-20.06,12.63-32.17,12.63c-25.92,0-47.02-20.45-47.02-45.72s21.1-45.59,47.02-45.59c12.24,0,23.58,4.69,32.04,12.24
		l-3.26,4.17C470.99,13.51,460.7,9.35,449.89,9.35z"/>
	<path d="M566.59,95.32L545.1,64.45c-2.48,0.39-4.95,0.52-7.69,0.52h-26.7v30.35h-5.47V4.27h32.17c22.53,0,35.3,10.94,35.3,29.96
		c0,15.5-7.95,25.66-22.4,29.31l22.79,31.78H566.59z M537.54,59.63c19.02,0,29.83-8.99,29.83-25.27c0-16.02-10.81-24.75-29.83-24.75
		h-26.83v50.02H537.54z"/>
	<path d="M685.25,49.73c0,25.27-21.1,45.72-47.15,45.72c-26.05,0-47.15-20.45-47.15-45.72s21.1-45.59,47.15-45.59
		C664.15,4.14,685.25,24.46,685.25,49.73z M596.54,49.73c0,22.27,18.76,40.38,41.55,40.38c22.79,0,41.55-18.1,41.55-40.38
		S660.89,9.48,638.1,9.48C615.3,9.48,596.54,27.45,596.54,49.73z"/>
	<path d="M732.13,9.74c-14.46,0-23.84,5.99-23.84,15.5c0,27.74,53.54,13.42,53.28,47.02c0,14.07-12.63,23.19-31.65,23.19
		c-12.12,0-24.49-5.34-32.43-13.16l2.86-4.82c7.42,7.68,19.02,12.38,29.7,12.38c15.63,0,25.66-6.77,25.66-17.45
		c0.26-28.53-53.28-13.94-53.28-46.77c0-13.15,11.98-21.62,29.96-21.62c9.25,0,19.28,2.99,26.05,7.42l-2.47,4.95
		C749.2,11.95,739.95,9.74,732.13,9.74z"/>
	<path d="M811.45,9.74c-14.46,0-23.84,5.99-23.84,15.5c0,27.74,53.54,13.42,53.28,47.02c0,14.07-12.63,23.19-31.65,23.19
		c-12.12,0-24.49-5.34-32.43-13.16l2.86-4.82c7.42,7.68,19.02,12.38,29.7,12.38c15.63,0,25.66-6.77,25.66-17.45
		c0.26-28.53-53.28-13.94-53.28-46.77c0-13.15,11.98-21.62,29.96-21.62c9.25,0,19.28,2.99,26.05,7.42l-2.47,4.95
		C828.52,11.95,819.27,9.74,811.45,9.74z"/>
	<polygon points="309.31,4 267.03,95.19 297.91,95.32 339.09,4 	"/>
	<polygon points="272.92,4 309.16,70.65 278.28,70.78 243.13,4 	"/>
	<g>
		<path d="M48.24,151.56l1.91-2.64c1.56,1.81,4.54,3.37,7.77,3.37c3.61,0,5.57-1.71,5.57-4.05c0-5.72-14.61-2.2-14.61-10.94
			c0-3.67,3.18-6.79,8.79-6.79c4.01,0,6.84,1.52,8.74,3.42l-1.71,2.54c-1.42-1.71-4.01-2.98-7.04-2.98c-3.22,0-5.23,1.61-5.23,3.71
			c0,5.18,14.61,1.76,14.61,10.94c0,3.96-3.18,7.13-9.28,7.13C53.91,155.27,50.64,154.1,48.24,151.56z"/>
		<path d="M74.08,142.87c0-6.84,4.88-12.36,11.63-12.36c7.13,0,11.33,5.57,11.33,12.66v0.93h-19.1c0.29,4.45,3.42,8.16,8.5,8.16
			c2.69,0,5.42-1.08,7.28-2.98l1.76,2.4c-2.35,2.35-5.52,3.61-9.38,3.61C79.11,155.27,74.08,150.24,74.08,142.87z M85.66,133.53
			c-5.03,0-7.52,4.25-7.72,7.86h15.49C93.38,137.88,91.03,133.53,85.66,133.53z"/>
		<path d="M105.39,154.69v-23.6h3.66v3.81c1.91-2.49,4.64-4.3,7.86-4.3v3.76c-0.44-0.1-0.88-0.15-1.47-0.15
			c-2.25,0-5.33,1.85-6.4,3.76v16.71H105.39z"/>
		<path d="M130.25,154.69l-9.82-23.6h3.96l7.86,19.35l7.82-19.35h4.01l-9.82,23.6H130.25z"/>
		<path d="M149.69,125.28c0-1.37,1.12-2.49,2.44-2.49c1.37,0,2.49,1.12,2.49,2.49c0,1.37-1.12,2.44-2.49,2.44
			C150.81,127.72,149.69,126.64,149.69,125.28z M150.32,154.69v-23.6h3.66v23.6H150.32z"/>
		<path d="M162.39,142.87c0-6.99,4.74-12.36,11.77-12.36c4.3,0,6.84,1.76,8.65,4.11l-2.44,2.25c-1.56-2.15-3.57-3.08-6.01-3.08
			c-5.03,0-8.16,3.86-8.16,9.09c0,5.23,3.13,9.14,8.16,9.14c2.44,0,4.45-0.98,6.01-3.08l2.44,2.25c-1.81,2.34-4.35,4.1-8.65,4.1
			C167.13,155.27,162.39,149.9,162.39,142.87z"/>
		<path d="M189.01,142.87c0-6.84,4.88-12.36,11.63-12.36c7.13,0,11.33,5.57,11.33,12.66v0.93h-19.1c0.29,4.45,3.42,8.16,8.5,8.16
			c2.69,0,5.42-1.08,7.28-2.98l1.76,2.4c-2.35,2.35-5.52,3.61-9.38,3.61C194.04,155.27,189.01,150.24,189.01,142.87z M200.58,133.53
			c-5.03,0-7.52,4.25-7.72,7.86h15.49C208.3,137.88,205.96,133.53,200.58,133.53z"/>
		<path d="M252.46,154.69v-3.52c-1.76,2.4-4.64,4.1-7.96,4.1c-6.16,0-10.5-4.69-10.5-12.36c0-7.53,4.3-12.41,10.5-12.41
			c3.17,0,6.06,1.56,7.96,4.16V122.1h3.66v32.59H252.46z M252.46,148.29v-10.7c-1.32-2.05-4.15-3.81-7.08-3.81
			c-4.74,0-7.57,3.91-7.57,9.14s2.83,9.09,7.57,9.09C248.31,152,251.14,150.34,252.46,148.29z"/>
		<path d="M264.52,142.87c0-6.84,4.88-12.36,11.63-12.36c7.13,0,11.33,5.57,11.33,12.66v0.93h-19.1c0.29,4.45,3.42,8.16,8.5,8.16
			c2.69,0,5.42-1.08,7.28-2.98l1.76,2.4c-2.35,2.35-5.52,3.61-9.38,3.61C269.55,155.27,264.52,150.24,264.52,142.87z M276.09,133.53
			c-5.03,0-7.52,4.25-7.72,7.86h15.49C283.81,137.88,281.47,133.53,276.09,133.53z"/>
		<path d="M293.77,151.56l1.91-2.64c1.56,1.81,4.54,3.37,7.77,3.37c3.61,0,5.57-1.71,5.57-4.05c0-5.72-14.61-2.2-14.61-10.94
			c0-3.67,3.18-6.79,8.79-6.79c4.01,0,6.84,1.52,8.74,3.42l-1.71,2.54c-1.42-1.71-4.01-2.98-7.04-2.98c-3.22,0-5.23,1.61-5.23,3.71
			c0,5.18,14.61,1.76,14.61,10.94c0,3.96-3.18,7.13-9.28,7.13C299.44,155.27,296.16,154.1,293.77,151.56z"/>
		<path d="M320.34,125.28c0-1.37,1.12-2.49,2.44-2.49c1.37,0,2.49,1.12,2.49,2.49c0,1.37-1.12,2.44-2.49,2.44
			C321.47,127.72,320.34,126.64,320.34,125.28z M320.98,154.69v-23.6h3.66v23.6H320.98z"/>
		<path d="M334.36,160.75l1.86-2.73c1.95,2.34,4.3,3.22,7.67,3.22c3.91,0,7.57-1.9,7.57-7.09v-3.37c-1.71,2.4-4.59,4.2-7.92,4.2
			c-6.16,0-10.5-4.59-10.5-12.22c0-7.57,4.3-12.26,10.5-12.26c3.17,0,6.01,1.56,7.92,4.16v-3.57h3.66v22.92
			c0,7.82-5.47,10.26-11.24,10.26C339.88,164.27,337.14,163.48,334.36,160.75z M351.46,147.9v-10.31c-1.27-2.05-4.1-3.81-7.04-3.81
			c-4.74,0-7.57,3.76-7.57,8.99c0,5.18,2.83,8.99,7.57,8.99C347.36,151.76,350.19,149.95,351.46,147.9z"/>
		<path d="M380.81,154.69v-15.44c0-4.16-2.1-5.47-5.28-5.47c-2.88,0-5.62,1.76-6.99,3.67v17.25h-3.66v-23.6h3.66v3.42
			c1.66-1.95,4.88-4.01,8.4-4.01c4.93,0,7.52,2.5,7.52,7.63v16.56H380.81z"/>
		<path d="M430.49,154.69c-0.98-0.83-2.25-2.05-3.57-3.42c-2.4,2.4-5.42,4.01-9.38,4.01c-5.62,0-10.16-3.03-10.16-9.08
			c0-5.08,3.42-7.67,7.18-9.68c-1.47-2.49-2.49-5.03-2.49-7.32c0-4.35,3.61-7.57,8.21-7.57c4.25,0,7.38,2.29,7.38,6.4
			c0,4.89-4.15,7.04-8.3,9.18c1.32,1.81,2.69,3.42,3.76,4.64c1.32,1.56,2.59,2.98,3.86,4.35c1.81-2.69,2.93-5.62,3.52-7.43
			l3.17,1.37c-1.12,2.59-2.49,5.67-4.45,8.4c1.91,2,3.96,3.96,6.35,6.16H430.49z M424.72,149.02c-1.86-1.95-3.57-3.81-4.49-4.93
			c-1.37-1.56-2.79-3.32-4.1-5.18c-2.69,1.66-4.79,3.66-4.79,7.04c0,4.05,3.13,6.3,6.55,6.3
			C420.57,152.25,422.86,150.88,424.72,149.02z M417.83,134.85c3.47-1.71,6.45-3.47,6.45-6.69c0-2.4-1.66-3.66-3.86-3.66
			c-2.49,0-4.54,1.95-4.54,4.74C415.88,130.94,416.71,132.94,417.83,134.85z"/>
		<path d="M475.18,154.69v-3.52c-1.76,2.4-4.64,4.1-7.96,4.1c-6.16,0-10.5-4.69-10.5-12.36c0-7.53,4.3-12.41,10.5-12.41
			c3.17,0,6.06,1.56,7.96,4.16V122.1h3.66v32.59H475.18z M475.18,148.29v-10.7c-1.32-2.05-4.15-3.81-7.08-3.81
			c-4.74,0-7.57,3.91-7.57,9.14s2.83,9.09,7.57,9.09C471.02,152,473.86,150.34,475.18,148.29z"/>
		<path d="M487.97,125.28c0-1.37,1.12-2.49,2.44-2.49c1.37,0,2.49,1.12,2.49,2.49c0,1.37-1.12,2.44-2.49,2.44
			C489.09,127.72,487.97,126.64,487.97,125.28z M488.6,154.69v-23.6h3.66v23.6H488.6z"/>
		<path d="M501.98,160.75l1.86-2.73c1.95,2.34,4.3,3.22,7.67,3.22c3.91,0,7.57-1.9,7.57-7.09v-3.37c-1.71,2.4-4.59,4.2-7.92,4.2
			c-6.16,0-10.5-4.59-10.5-12.22c0-7.57,4.3-12.26,10.5-12.26c3.17,0,6.01,1.56,7.92,4.16v-3.57h3.66v22.92
			c0,7.82-5.47,10.26-11.24,10.26C507.51,164.27,504.77,163.48,501.98,160.75z M519.09,147.9v-10.31c-1.27-2.05-4.1-3.81-7.04-3.81
			c-4.74,0-7.57,3.76-7.57,8.99c0,5.18,2.83,8.99,7.57,8.99C514.98,151.76,517.82,149.95,519.09,147.9z"/>
		<path d="M531.88,125.28c0-1.37,1.12-2.49,2.44-2.49c1.37,0,2.49,1.12,2.49,2.49c0,1.37-1.12,2.44-2.49,2.44
			C533,127.72,531.88,126.64,531.88,125.28z M532.51,154.69v-23.6h3.66v23.6H532.51z"/>
		<path d="M546.68,149.76v-15.44h-3.91v-3.23h3.91v-6.45h3.66v6.45h4.79v3.23h-4.79v14.65c0,1.76,0.78,3.03,2.4,3.03
			c1.03,0,2-0.44,2.49-0.98l1.08,2.74c-0.93,0.88-2.25,1.51-4.4,1.51C548.43,155.27,546.68,153.27,546.68,149.76z"/>
		<path d="M577.5,154.69V152c-1.96,2.15-4.64,3.27-7.82,3.27c-4.01,0-8.26-2.69-8.26-7.82c0-5.27,4.25-7.76,8.26-7.76
			c3.22,0,5.91,1.02,7.82,3.22v-4.25c0-3.17-2.54-4.98-5.96-4.98c-2.84,0-5.13,1.02-7.23,3.27l-1.71-2.54
			c2.54-2.64,5.57-3.91,9.43-3.91c4.98,0,9.14,2.25,9.14,7.97v16.22H577.5z M577.5,149.7v-4.44c-1.42-1.96-3.91-2.94-6.5-2.94
			c-3.42,0-5.81,2.15-5.81,5.18c0,2.98,2.39,5.13,5.81,5.13C573.59,152.64,576.08,151.66,577.5,149.7z"/>
		<path d="M590.93,154.69V122.1h3.66v32.59H590.93z"/>
		<path d="M623.07,151.12v12.56h-3.66v-32.59h3.66v3.52c1.71-2.4,4.64-4.11,7.96-4.11c6.21,0,10.5,4.69,10.5,12.36
			c0,7.62-4.3,12.41-10.5,12.41C627.8,155.27,624.97,153.76,623.07,151.12z M637.67,142.87c0-5.23-2.83-9.09-7.57-9.09
			c-2.88,0-5.77,1.71-7.04,3.76v10.65c1.27,2.05,4.15,3.81,7.04,3.81C634.84,152,637.67,148.09,637.67,142.87z"/>
		<path d="M649.78,154.69v-23.6h3.66v3.81c1.91-2.49,4.64-4.3,7.86-4.3v3.76c-0.44-0.1-0.88-0.15-1.47-0.15
			c-2.25,0-5.33,1.85-6.4,3.76v16.71H649.78z"/>
		<path d="M666.97,142.87c0-6.84,4.49-12.36,11.68-12.36s11.68,5.52,11.68,12.36c0,6.84-4.5,12.41-11.68,12.41
			S666.97,149.7,666.97,142.87z M686.47,142.87c0-4.79-2.79-9.09-7.82-9.09c-5.03,0-7.86,4.3-7.86,9.09c0,4.83,2.83,9.14,7.86,9.14
			C683.68,152,686.47,147.7,686.47,142.87z"/>
		<path d="M715.82,154.69v-3.52c-1.76,2.4-4.64,4.1-7.96,4.1c-6.16,0-10.5-4.69-10.5-12.36c0-7.53,4.3-12.41,10.5-12.41
			c3.17,0,6.06,1.56,7.96,4.16V122.1h3.66v32.59H715.82z M715.82,148.29v-10.7c-1.32-2.05-4.15-3.81-7.09-3.81
			c-4.74,0-7.57,3.91-7.57,9.14S704,152,708.73,152C711.67,152,714.5,150.34,715.82,148.29z"/>
		<path d="M745.17,154.69v-3.32c-1.81,2.05-4.88,3.91-8.4,3.91c-4.93,0-7.52-2.39-7.52-7.52v-16.66h3.66v15.54
			c0,4.15,2.1,5.37,5.28,5.37c2.88,0,5.62-1.66,6.99-3.57v-17.35h3.66v23.6H745.17z"/>
		<path d="M757.24,142.87c0-6.99,4.74-12.36,11.77-12.36c4.3,0,6.84,1.76,8.65,4.11l-2.44,2.25c-1.56-2.15-3.57-3.08-6.01-3.08
			c-5.03,0-8.16,3.86-8.16,9.09c0,5.23,3.13,9.14,8.16,9.14c2.44,0,4.45-0.98,6.01-3.08l2.44,2.25c-1.81,2.34-4.35,4.1-8.65,4.1
			C761.97,155.27,757.24,149.9,757.24,142.87z"/>
		<path d="M785.95,149.76v-15.44h-3.91v-3.23h3.91v-6.45h3.66v6.45h4.79v3.23h-4.79v14.65c0,1.76,0.78,3.03,2.4,3.03
			c1.03,0,2-0.44,2.49-0.98l1.08,2.74c-0.93,0.88-2.25,1.51-4.4,1.51C787.71,155.27,785.95,153.27,785.95,149.76z"/>
		<path d="M799.97,151.56l1.91-2.64c1.56,1.81,4.54,3.37,7.77,3.37c3.61,0,5.57-1.71,5.57-4.05c0-5.72-14.61-2.2-14.61-10.94
			c0-3.67,3.18-6.79,8.79-6.79c4.01,0,6.84,1.52,8.74,3.42l-1.71,2.54c-1.42-1.71-4.01-2.98-7.04-2.98c-3.22,0-5.23,1.61-5.23,3.71
			c0,5.18,14.61,1.76,14.61,10.94c0,3.96-3.18,7.13-9.28,7.13C805.64,155.27,802.36,154.1,799.97,151.56z"/>
	</g>
	<polygon points="354.83,4.32 351.95,10.81 376.17,63.93 328.32,63.93 325.89,69.4 378.65,69.4 390.5,95.32 396.49,95.32 	"/>
</g>
</svg>
